<?xml version="1.0" encoding="UTF-8"?>
<svg width="20px" height="20px" viewBox="0 0 20 20" version="1.1" xmlns="http://www.w3.org/2000/svg" xmlns:xlink="http://www.w3.org/1999/xlink">
    <!-- Generator: Sketch 52.5 (67469) - http://www.bohemiancoding.com/sketch -->
    <title>Group 16</title>
    <desc>Created with Sketch.</desc>
    <defs>
        <linearGradient x1="-1.11022302e-14%" y1="50%" x2="117.981774%" y2="50%" id="linearGradient-1">
            <stop stop-color="#4335C6" offset="0%"></stop>
            <stop stop-color="#5D7DE0" offset="100%"></stop>
        </linearGradient>
    </defs>
    <g id="Page-1" stroke="none" stroke-width="1" fill="none" fill-rule="evenodd">
        <g id="REGENCYONE-главная" transform="translate(-1405.000000, -6036.000000)" fill="url(#linearGradient-1)" fill-rule="nonzero">
            <g id="Group-16" transform="translate(1405.000000, 6036.000000)">
                <path d="M14,20 L14,0 L20,0 L20,20 L14,20 Z M16,18 L18,18 L18,2 L16,2 L16,18 Z" id="stats-[#1366]"></path>
                <path d="M0,20 L0,10 L6,10 L6,20 L0,20 Z M2,18 L4,18 L4,12 L2,12 L2,18 Z" id="Combined-Shape"></path>
                <path d="M7,20 L7,4 L13,4 L13,20 L7,20 Z M9,18 L11,18 L11,6 L9,6 L9,18 Z" id="Combined-Shape"></path>
            </g>
        </g>
    </g>
</svg>