<?xml version="1.0" encoding="UTF-8"?>
<svg width="26px" height="26px" viewBox="0 0 26 26" version="1.1" xmlns="http://www.w3.org/2000/svg" xmlns:xlink="http://www.w3.org/1999/xlink">
    <!-- Generator: Sketch 52.5 (67469) - http://www.bohemiancoding.com/sketch -->
    <title>stats [#1368]</title>
    <desc>Created with Sketch.</desc>
    <g id="Page-1" stroke="none" stroke-width="1" fill="none" fill-rule="evenodd">
        <g id="REGENCYONE-главная" transform="translate(-744.000000, -2370.000000)" fill="#FFFFFF">
            <path d="M764.8,2393.4 L767.4,2393.4 L767.4,2372.6 L764.8,2372.6 L764.8,2393.4 Z M762.2,2396 L770,2396 L770,2370 L762.2,2370 L762.2,2396 Z M746.6,2393.4 L749.2,2393.4 L749.2,2377.8 L746.6,2377.8 L746.6,2393.4 Z M744,2396 L751.8,2396 L751.8,2375.2 L744,2375.2 L744,2396 Z M755.7,2393.4 L758.3,2393.4 L758.3,2385.6 L755.7,2385.6 L755.7,2393.4 Z M753.1,2396 L760.9,2396 L760.9,2383 L753.1,2383 L753.1,2396 Z" id="stats-[#1368]"></path>
        </g>
    </g>
</svg>