<?xml version="1.0" encoding="UTF-8"?>
<svg width="24px" height="24px" viewBox="0 0 24 24" version="1.1" xmlns="http://www.w3.org/2000/svg" xmlns:xlink="http://www.w3.org/1999/xlink">
    <!-- Generator: Sketch 52.5 (67469) - http://www.bohemiancoding.com/sketch -->
    <title>gallery_grid_view [#1404]</title>
    <desc>Created with Sketch.</desc>
    <g id="Page-1" stroke="none" stroke-width="1" fill="none" fill-rule="evenodd">
        <g id="REGENCYONE-главная" transform="translate(-1096.000000, -2371.000000)" fill="#FFFFFF">
            <path d="M1098.4,2392.6 L1104.4,2392.6 L1104.4,2390.2 L1098.4,2390.2 L1098.4,2392.6 Z M1096,2395 L1106.8,2395 L1106.8,2387.8 L1096,2387.8 L1096,2395 Z M1111.6,2375.8 L1117.6,2375.8 L1117.6,2373.4 L1111.6,2373.4 L1111.6,2375.8 Z M1109.2,2378.2 L1120,2378.2 L1120,2371 L1109.2,2371 L1109.2,2378.2 Z M1111.6,2392.6 L1117.6,2392.6 L1117.6,2383 L1111.6,2383 L1111.6,2392.6 Z M1109.2,2395 L1120,2395 L1120,2380.6 L1109.2,2380.6 L1109.2,2395 Z M1098.4,2383 L1104.4,2383 L1104.4,2373.4 L1098.4,2373.4 L1098.4,2383 Z M1096,2385.4 L1106.8,2385.4 L1106.8,2371 L1096,2371 L1096,2385.4 Z" id="gallery_grid_view-[#1404]"></path>
        </g>
    </g>
</svg>