<?xml version="1.0" encoding="UTF-8"?>
<svg width="28px" height="20px" viewBox="0 0 28 20" version="1.1" xmlns="http://www.w3.org/2000/svg" xmlns:xlink="http://www.w3.org/1999/xlink">
    <!-- Generator: Sketch 52.5 (67469) - http://www.bohemiancoding.com/sketch -->
    <title>toggle_button_round [#899]</title>
    <desc>Created with Sketch.</desc>
    <g id="Page-1" stroke="none" stroke-width="1" fill="none" fill-rule="evenodd">
        <g id="REGENCYONE-главная" transform="translate(-1431.000000, -2373.000000)" fill="#FFFFFF">
            <path d="M1444.5912,2382.90286 C1444.5912,2380.53571 1446.4714,2378.61714 1448.7912,2378.61714 C1451.111,2378.61714 1452.9912,2380.53571 1452.9912,2382.90286 C1452.9912,2385.27 1451.111,2387.18857 1448.7912,2387.18857 C1446.4714,2387.18857 1444.5912,2385.27 1444.5912,2382.90286 L1444.5912,2382.90286 Z M1440.6376,2375.85714 L1449.0376,2375.85714 C1452.8974,2375.85714 1456.0376,2379.06143 1456.0376,2383 C1456.0376,2386.93857 1452.8974,2390.14286 1449.0376,2390.14286 L1440.6376,2390.14286 C1436.7778,2390.14286 1433.6376,2386.93857 1433.6376,2383 C1433.6376,2379.06143 1436.7778,2375.85714 1440.6376,2375.85714 L1440.6376,2375.85714 Z M1459,2383 C1459,2377.47714 1454.6124,2373 1449.2,2373 L1440.8,2373 C1435.3876,2373 1431,2377.47714 1431,2383 L1431,2383 C1431,2388.52286 1435.3876,2393 1440.8,2393 L1449.2,2393 C1454.6124,2393 1459,2388.52286 1459,2383 L1459,2383 Z" id="toggle_button_round-[#899]"></path>
        </g>
    </g>
</svg>